<svg xmlns="http://www.w3.org/2000/svg" viewBox="0 0 1120.58 316.82" fill="#fff">
  <g>
    <path d="M286.92,222.66q-1.68,36.6-51.11,100.23-51.12,66.47-86.49,66.46-21.91,0-37.07-40.47Q102.14,311.77,92,274.68,80.77,234.21,67.88,234.2q-2.82,0-19.67,11.81l-11.79-15.2Q55,214.51,73,198.18q24.75-21.39,37.14-22.51,29.25-2.82,36,40,7.29,46.21,10.13,57.46,8.43,38.34,18.56,38.33,7.88,0,23.64-24.87t16.87-37.86q2.25-21.47-16.87-21.48a46.89,46.89,0,0,0-18.55,4.11q18.47-60.54,70.58-58.84Q289.14,173.66,286.92,222.66Z" transform="translate(-36.42 -73.59)"/>
    <path d="M441.61,301.71q-15.75,29.81-43.33,54-37.72,32.61-75.41,32.61-17.46,0-26.74-11.25t-8.71-29.24q.54-18.56,11.52-57.37t11-41.62q0-14.61-10.13-14.62-3.37,0-19.14,11.81l-13-15.2q18-16.31,36-32.63,24.19-21.39,36-22.51,18.56-1.68,27.29,10.94t6.48,32.79q-7.33,34.22-15.77,86.9-.57,24.12,17.45,24.11,7.86,0,28.13-16.66a233.85,233.85,0,0,0,27.58-26.1Zm-49-200.13q-.56,14-14.07,26.89a50.33,50.33,0,0,1-36,14.55q-32.07,0-30.95-28,.54-14.55,17.15-28t36.87-13.44a24.91,24.91,0,0,1,19.71,9.24Q393.2,92.09,392.65,101.58Z" transform="translate(-36.42 -73.59)"/>
    <path d="M793.06,301.71q-15.76,29.81-43.34,54Q712,388.3,674.32,388.3q-36.62,0-35.46-40.49.54-18,7-43.3t7-39.37q.57-21.37-13-21.38-14.68,0-35,34.89-21.46,36.59-23.15,70.9-1.14,24.22,4.73,37.16-39.27,1.13-55-12.95-14.06-12.37-12.91-41.08a151.33,151.33,0,0,1,5.53-36q5-18,5.52-32.08,1.14-20.82-15.21-20.82-14.12,0-30.44,32.08a163.47,163.47,0,0,0-18,67q-1.12,31.53,4,43.9-38.62,1.13-54.86-16.29-13.47-14.58-12.32-44.32.54-14.58,5.16-40.69t5.19-40.68q1.1-10.09-5.07-10.1-3.37,0-19.14,11.38l-13.51-15.2q2.82-2.22,35.46-32.63,23.64-21.93,32.07-22.49,14.63-1.14,23.63,12.08t9,30.68a49.85,49.85,0,0,1-1.12,10.69,103.53,103.53,0,0,1,19.7-22.52q25.88-22.5,58-25.33,27.59-2.23,39.4,13,9.55,12.38,9,35.45c2.63-2.23,5.44-4.68,8.45-7.31q12.93-15.19,25.31-24.2,20.82-15.19,43.34-16.89,27-2.23,38.83,12.9,10.11,12.33,9,35.31-.57,15.7-7.6,45.7t-7,34.47c-.37,7.86.38,13.27,2.26,16.27s6.36,4.47,13.5,4.47q7.88,0,28.14-16.66a234.64,234.64,0,0,0,27.58-26.1Z" transform="translate(-36.42 -73.59)"/>
    <path d="M1004.09,301.14q-16.32,27-64.15,53.94-59.66,34.29-121,34.27-45.6,0-65.3-30.37-14.05-20.82-13.5-49.52.54-45.57,40.52-86.66,43.89-45,103.55-45,55.15,0,58.53,44.92,2.25,28.6-31.51,58.94-36,33.14-90.62,42.1,10.11,14,30.39,14,40.51,0,88.37-20.61,34.3-14.48,54-30.08ZM876.34,242.37q.54-15.09-12.37-15.11-16.86,0-34.27,23.24t-18,44.5c-.21,0-.21,2.44,0,7.29a126.48,126.48,0,0,0,47.76-30.79Q875.77,253.59,876.34,242.37Z" transform="translate(-36.42 -73.59)"/>
    <path d="M1156.86,263.41q-2.27,51.7-38.26,89.35t-89.49,37.65q-44.44,0-67.53-28.67Q944.72,340.4,943,308.37q-2.84-48.33,34.89-88.79,40.51-45,101.86-45,39.36,0,59.64,26.42Q1158.57,225.21,1156.86,263.41Zm-63.59-2.12a70.83,70.83,0,0,0-4.23-27.91q-4.79-12.69-13.78-12.7-28.71,0-47.26,31a108.88,108.88,0,0,0-16.9,54.12q-.55,14.12,5.07,24.82,6.17,12.41,17.45,12.4,25.31,0,43.33-29.88Q1092.15,288.34,1093.27,261.29Z" transform="translate(-36.42 -73.59)"/>
  </g>
</svg>
